<svg width="65" height="62" viewBox="0 0 65 62" fill="none" xmlns="http://www.w3.org/2000/svg">
<path d="M32.4492 60.7891C16.3516 60.7891 0 57.4953 0 51.1984C0 45.5797 12.5938 43.2547 17.9766 42.5281H18.1797C18.9414 42.5281 19.6016 43.0609 19.7031 43.7875C19.7539 44.175 19.6523 44.5625 19.3984 44.8531C19.1445 45.1437 18.7891 45.3859 18.3828 45.4344C7.16016 46.9844 2.99609 49.7938 2.99609 51.2469C2.99609 53.9594 14.4727 57.9312 32.3984 57.9312C50.3242 57.9312 61.8008 53.9594 61.8008 51.2469C61.8008 49.7938 57.5859 46.9844 46.2617 45.4344C45.8555 45.3859 45.5 45.1922 45.2461 44.8531C44.9922 44.5625 44.8906 44.175 44.9414 43.7875C45.043 43.0609 45.7031 42.5281 46.4648 42.5281H46.668C52.1016 43.2547 64.7969 45.5797 64.7969 51.1984C64.8477 57.4469 48.5469 60.7891 32.4492 60.7891ZM31.3828 50.5203C30.6211 49.8422 13.0508 34.0031 13.0508 18.4547C13.0508 8.28281 21.7344 0 32.3984 0C43.0625 0 51.7461 8.28281 51.7461 18.4547C51.7461 33.5672 34.1758 49.7938 33.4141 50.4719L32.3984 51.4406L31.3828 50.5203ZM32.4492 2.90625C23.4609 2.90625 16.1484 9.88125 16.1484 18.4547C16.1484 30.6125 28.5898 43.6422 32.4492 47.3719C36.3594 43.5453 48.8008 30.2734 48.8008 18.4547C48.75 9.92969 41.4375 2.90625 32.4492 2.90625ZM32.4492 26.6891C27.3711 26.6891 23.2578 22.7656 23.2578 17.9219C23.2578 13.0781 27.3711 9.15469 32.4492 9.15469C37.5273 9.15469 41.6406 13.0781 41.6406 17.9219C41.6406 22.7656 37.5273 26.6891 32.4492 26.6891ZM32.4492 12.0609C29.0469 12.0609 26.3047 14.6766 26.3047 17.9219C26.3047 21.1672 29.0469 23.7828 32.4492 23.7828C35.8516 23.7828 38.5938 21.1672 38.5938 17.9219C38.5938 14.6766 35.8008 12.0609 32.4492 12.0609Z" fill="black"/>
</svg>
