<svg width="64" height="47" viewBox="0 0 64 47" fill="none" xmlns="http://www.w3.org/2000/svg">
<path d="M46.172 2.35889H17.826C16.232 2.35889 14.938 3.30917 14.938 4.47976V42.5219C14.938 43.6939 16.232 44.6427 17.826 44.6427H46.172C47.766 44.6427 49.06 43.6939 49.06 42.5219V4.47976C49.06 3.30917 47.766 2.35889 46.172 2.35889ZM46.928 42.5219C46.928 42.8274 46.59 43.0756 46.174 43.0756H17.828C17.412 43.0756 17.074 42.8274 17.074 42.5219V35.2515H46.93L46.928 42.5219ZM46.928 33.6844H17.072V8.65395H46.928V33.6844ZM46.928 7.08826H17.072V4.47976C17.072 4.17426 17.41 3.92457 17.826 3.92457H46.172C46.588 3.92457 46.926 4.17426 46.926 4.47976V7.08826H46.928Z" fill="white"/>
<path d="M28.802 38.377H35.2V39.9426H28.802V38.377Z" fill="white"/>
</svg>
