<svg width="51" height="45" viewBox="0 0 51 45" fill="none" xmlns="http://www.w3.org/2000/svg">
<g clip-path="url(#clip0_17010_1199)">
<path d="M25.5 44.5078C12.8695 44.5078 0.039856 42.1172 0.039856 37.5469C0.039856 33.4688 9.92111 31.7813 14.1445 31.2539H14.3039C14.9016 31.2539 15.4195 31.6406 15.4992 32.168C15.5391 32.4492 15.4594 32.7305 15.2602 32.9414C15.0609 33.1523 14.782 33.3281 14.4633 33.3633C5.65782 34.4883 2.39064 36.5273 2.39064 37.582C2.39064 39.5508 11.3953 42.4336 25.4602 42.4336C39.525 42.4336 48.5297 39.5508 48.5297 37.582C48.5297 36.5273 45.2227 34.4883 36.3375 33.3633C36.0188 33.3281 35.7399 33.1875 35.5406 32.9414C35.3414 32.7305 35.2617 32.4492 35.3016 32.168C35.3813 31.6406 35.8992 31.2539 36.4969 31.2539H36.6563C40.9195 31.7813 50.8805 33.4688 50.8805 37.5469C50.9203 42.082 38.1305 44.5078 25.5 44.5078ZM24.6633 37.0547C24.0656 36.5625 10.2797 25.0664 10.2797 13.7813C10.2797 6.39844 17.093 0.386719 25.4602 0.386719C33.8274 0.386719 40.6406 6.39844 40.6406 13.7813C40.6406 24.75 26.8547 36.5273 26.257 37.0195L25.4602 37.7227L24.6633 37.0547ZM25.5 2.49609C18.4477 2.49609 12.7102 7.55859 12.7102 13.7813C12.7102 22.6055 22.4719 32.0625 25.5 34.7695C28.568 31.9922 38.3297 22.3594 38.3297 13.7813C38.2899 7.59375 32.5524 2.49609 25.5 2.49609ZM25.5 19.7578C21.5156 19.7578 18.2883 16.9102 18.2883 13.3945C18.2883 9.87891 21.5156 7.03125 25.5 7.03125C29.4844 7.03125 32.7117 9.87891 32.7117 13.3945C32.7117 16.9102 29.4844 19.7578 25.5 19.7578ZM25.5 9.14062C22.8305 9.14062 20.6789 11.0391 20.6789 13.3945C20.6789 15.75 22.8305 17.6484 25.5 17.6484C28.1695 17.6484 30.3211 15.75 30.3211 13.3945C30.3211 11.0391 28.1297 9.14062 25.5 9.14062Z" fill="white"/>
</g>
<defs>
<clipPath id="clip0_17010_1199">
<rect width="51" height="45" fill="white"/>
</clipPath>
</defs>
</svg>
