<svg width="59" height="79" viewBox="0 0 59 79" fill="none" xmlns="http://www.w3.org/2000/svg">
<path d="M19.6396 11.5191C19.318 11.96 19.1379 12.5519 19.1379 13.1683C19.1379 13.7846 19.318 14.3765 19.6396 14.8174L37.6088 39.5L19.6396 64.1776C19.318 64.6185 19.1379 65.2104 19.1379 65.8267C19.1379 66.443 19.318 67.0349 19.6396 67.4758C19.796 67.6908 19.9829 67.8617 20.1894 67.9784C20.3958 68.0951 20.6177 68.1552 20.8418 68.1552C21.0659 68.1552 21.2877 68.0951 21.4942 67.9784C21.7006 67.8617 21.8875 67.6908 22.0439 67.4758L41.1525 41.2231C41.4881 40.7621 41.676 40.1438 41.676 39.5C41.676 38.8561 41.4881 38.2378 41.1525 37.7768L22.0439 11.5241C21.8875 11.3091 21.7006 11.1382 21.4942 11.0215C21.2877 10.9048 21.0659 10.8447 20.8418 10.8447C20.6177 10.8447 20.3958 10.9048 20.1894 11.0215C19.9829 11.1382 19.796 11.3091 19.6396 11.5241V11.5191Z" fill="black"/>
</svg>
