<svg width="115" height="105" viewBox="0 0 115 105" fill="none" xmlns="http://www.w3.org/2000/svg">
<path d="M82.7634 5.26978H32.2721C29.4328 5.26978 27.1278 7.39274 27.1278 10.0079V94.9956C27.1278 97.614 29.4328 99.7337 32.2721 99.7337H82.7634C85.6027 99.7337 87.9076 97.614 87.9076 94.9956V10.0079C87.9076 7.39274 85.6027 5.26978 82.7634 5.26978ZM84.11 94.9956C84.11 95.6781 83.5079 96.2326 82.7669 96.2326H32.2756C31.5346 96.2326 30.9326 95.6781 30.9326 94.9956V78.7534H84.1136L84.11 94.9956ZM84.11 75.2523H30.929V19.3332H84.11V75.2523ZM84.11 15.8354H30.929V10.0079C30.929 9.3254 31.5311 8.76759 32.2721 8.76759H82.7634C83.5044 8.76759 84.1064 9.3254 84.1064 10.0079V15.8354H84.11Z" fill="black"/>
<path d="M51.8231 85.7358H63.2195V89.2337H51.8231V85.7358Z" fill="black"/>
</svg>
