<svg width="72" height="64" viewBox="0 0 72 64" fill="none" xmlns="http://www.w3.org/2000/svg">
<path d="M9 17.3333C9 38.6883 28.4756 56 52.5 56C54.498 56 56.4648 55.8803 58.3911 55.6485C61.1241 55.3195 63 53.1445 63 50.6933V43.844C63 41.5485 61.3473 39.5104 58.8975 38.7845L49.4523 35.9859C47.0508 35.2744 44.4756 36.5307 43.8618 38.7139C43.0425 41.6272 38.961 42.632 36.5721 40.5085L26.4278 31.4915C24.039 29.368 25.1695 25.7401 28.4469 25.0118C30.903 24.466 32.3163 22.1772 31.5159 20.0423L28.3675 11.6468C27.5509 9.46896 25.258 8 22.6754 8H14.9701C12.2124 8 9.76554 9.66755 9.39555 12.0967C9.1347 13.8092 9 15.5573 9 17.3333Z" stroke="black" stroke-width="3" stroke-linejoin="round"/>
<path d="M63 8L46.5 22.6667" stroke="black" stroke-width="4" stroke-linecap="round" stroke-linejoin="round"/>
<path d="M45 13.3334V22.6667C45 23.4031 45.6717 24 46.5 24H57" stroke="black" stroke-width="4" stroke-linecap="round" stroke-linejoin="round"/>
</svg>
