<svg width="52" height="79" viewBox="0 0 52 79" fill="none" xmlns="http://www.w3.org/2000/svg">
<path d="M30.9465 11.5241L14.105 37.7718C13.8092 38.2329 13.6437 38.8512 13.6437 39.495C13.6437 40.1388 13.8092 40.7572 14.105 41.2182L30.9465 67.4758C31.0843 67.6908 31.249 67.8617 31.431 67.9784C31.613 68.0951 31.8085 68.1552 32.006 68.1552C32.2035 68.1552 32.399 68.0951 32.581 67.9784C32.763 67.8617 32.9277 67.6908 33.0655 67.4758C33.349 67.0349 33.5077 66.443 33.5077 65.8267C33.5077 65.2104 33.349 64.6185 33.0655 64.1776L17.2283 39.495L33.0655 14.8174C33.348 14.3767 33.5061 13.7859 33.5061 13.1707C33.5061 12.5556 33.348 11.9648 33.0655 11.5241C32.9277 11.3091 32.763 11.1382 32.581 11.0215C32.399 10.9048 32.2035 10.8447 32.006 10.8447C31.8085 10.8447 31.613 10.9048 31.431 11.0215C31.249 11.1382 31.0843 11.3091 30.9465 11.5241Z" fill="black"/>
</svg>
