<svg width="62" height="44" viewBox="0 0 62 44" fill="none" xmlns="http://www.w3.org/2000/svg">
<g clip-path="url(#clip0_17010_1174)">
<path d="M58.7021 0H3.29787C1.47613 0 0 1.04804 0 2.34043V41.6596C0 42.952 1.47613 44 3.29787 44H58.7021C60.5239 44 62 42.952 62 41.6596V2.34043C62 1.04804 60.5239 0 58.7021 0ZM49.3817 24.7818C51.0715 25.952 52.8583 27.0539 54.376 28.3472C55.0474 28.9183 55.6806 29.5081 56.1628 30.1723C56.8494 31.1197 56.2294 32.1603 55.0329 32.216L47.6087 32.2146C45.692 32.3264 44.1658 31.7788 42.8783 30.8487C41.8526 30.1068 40.8989 29.3148 39.9102 28.5485C39.5072 28.2335 39.0798 27.9372 38.5746 27.7031C37.5628 27.2369 36.6836 27.3792 36.1025 28.1286C35.5115 28.8916 35.375 29.7379 35.3209 30.5884C35.2384 31.8312 34.7108 32.1556 32.9543 32.2132C29.2013 32.3386 25.639 31.9342 22.3299 30.5922C19.4086 29.4079 17.1496 27.735 15.1814 25.843C11.3453 22.1531 8.4076 18.1027 5.7693 13.9363C5.17502 12.9978 5.60968 12.4955 7.06668 12.4763C9.49128 12.4422 11.9152 12.4469 14.3365 12.4745C15.3232 12.4852 15.9756 12.8859 16.3535 13.5459C17.6627 15.8325 19.2695 18.0082 21.2812 20.0256C21.8174 20.5625 22.3649 21.0985 23.1431 21.4781C24.0032 21.8975 24.6588 21.7594 25.0645 21.0783C25.3237 20.644 25.4358 20.1824 25.4912 19.7181C25.6838 18.1285 25.7069 16.5389 25.3745 14.9553C25.1667 13.9649 24.3805 13.325 22.9888 13.1377C22.2804 13.0423 22.384 12.856 22.7283 12.569C23.3258 12.0719 23.8891 11.7649 25.0078 11.7649L33.3982 11.7639C34.7213 11.9474 35.0155 12.3687 35.1956 13.3137L35.2035 19.9292C35.1896 20.2952 35.4614 21.3793 36.3874 21.619C37.1281 21.7926 37.6195 21.3709 38.0627 21.0367C40.0731 19.5224 41.5057 17.7339 42.7899 15.8835C43.3551 15.0677 43.8452 14.2223 44.3201 13.3765C44.6717 12.7506 45.2217 12.4426 46.2164 12.4539L54.2935 12.46C54.531 12.46 54.7744 12.4618 55.0098 12.4894C56.3699 12.6556 56.7425 13.0713 56.3224 14.014C55.6602 15.4946 54.3707 16.7284 53.1096 17.9651C51.7621 19.2874 50.3236 20.5663 48.9859 21.8951C47.7604 23.114 47.8594 23.7263 49.3817 24.7818Z" fill="white"/>
</g>
<defs>
<clipPath id="clip0_17010_1174">
<rect width="62" height="44" fill="white"/>
</clipPath>
</defs>
</svg>
