<svg width="77" height="75" viewBox="0 0 77 75" fill="none" xmlns="http://www.w3.org/2000/svg">
<g clip-path="url(#clip0_17009_176)">
<path d="M75.4426 38.507H69.9179V24.6672C69.9179 24.6037 69.9115 24.5417 69.9081 24.4792V13.8215C69.9081 13.0968 69.305 12.5094 68.561 12.5094H54.2775L41.9289 0.481418C41.6761 0.235418 41.3335 0.097168 40.9762 0.097168C40.619 0.097168 40.2764 0.235376 40.0236 0.481418L30.7123 9.55088L26.3351 5.28717C25.8089 4.77479 24.956 4.77479 24.4298 5.28717L17.0063 12.5178C16.9573 12.5125 16.9075 12.5094 16.8569 12.5094H1.55738C0.813347 12.5094 0.210266 13.0968 0.210266 13.8215V27.7864C0.210266 27.8292 0.212704 27.8715 0.216854 27.9132V71.3415C0.216854 73.3053 1.85717 74.903 3.87333 74.903H66.2614C68.2776 74.903 69.9179 73.3053 69.9179 71.3415V57.5018H75.4426C76.1867 57.5018 76.7898 56.9144 76.7898 56.1897V39.8191C76.7898 39.0944 76.1867 38.507 75.4426 38.507ZM67.2138 15.1337V21.2325C66.9096 21.1523 66.5912 21.1056 66.2613 21.1056H63.1027L56.9715 15.1337H67.2138ZM40.9763 3.26492L59.2925 21.1056H55.2038L38.9319 5.25621L40.9763 3.26492ZM37.0266 7.11204L51.3932 21.1057H42.5755L32.6176 11.4065L37.0266 7.11204ZM25.3824 8.07067L28.8072 11.4065L30.7123 13.2621L38.765 21.1056H35.0931L23.5465 9.85892L25.3824 8.07067ZM31.2825 21.1056H11.9999L21.6412 11.7148L31.2825 21.1056ZM8.18948 21.1056H3.87333C3.53748 21.1056 3.21369 21.1536 2.90454 21.2365V15.1337H14.3207L8.18948 21.1056ZM67.2236 71.3415C67.2236 71.8583 66.7919 72.2788 66.2614 72.2788H3.87333C3.3428 72.2788 2.91113 71.8583 2.91113 71.3415V24.6672C2.91113 24.1504 3.3428 23.7299 3.87333 23.7299H66.2614C66.7589 23.7299 67.1646 24.101 67.2139 24.5729V27.7864C67.2139 27.8379 67.2178 27.8886 67.2237 27.9385V38.507H54.9793C49.6028 38.507 45.2286 42.7675 45.2286 48.0043C45.2286 53.2413 49.6028 57.5019 54.9793 57.5019H67.2237L67.2236 71.3415ZM74.0955 54.8776H69.9179H67.2237H54.9793C51.0884 54.8776 47.9228 51.7942 47.9228 48.0043C47.9228 44.2145 51.0884 41.1313 54.9793 41.1313H67.2237H69.9179H74.0955V54.8776Z" fill="#333333"/>
<path d="M55.0433 43.5056C52.4966 43.5056 50.4246 45.5238 50.4246 48.0044C50.4246 50.4849 52.4966 52.5032 55.0433 52.5032C57.59 52.5032 59.662 50.4849 59.662 48.0044C59.662 45.5238 57.59 43.5056 55.0433 43.5056ZM55.0433 49.8789C53.9822 49.8789 53.1188 49.0379 53.1188 48.0044C53.1188 46.9709 53.9822 46.1299 55.0433 46.1299C56.1043 46.1299 56.9678 46.9709 56.9678 48.0044C56.9678 49.0379 56.1043 49.8789 55.0433 49.8789Z" fill="#333333"/>
</g>
<defs>
<clipPath id="clip0_17009_176">
<rect width="77" height="75" fill="white"/>
</clipPath>
</defs>
</svg>
