<svg width="70" height="65" viewBox="0 0 70 65" fill="none" xmlns="http://www.w3.org/2000/svg">
<g clip-path="url(#clip0_17009_115)">
<path d="M69.8939 8.99346C69.8735 8.94205 69.8385 8.90142 69.8123 8.85267C69.7569 8.75784 69.6957 8.6658 69.6198 8.58456C69.576 8.53847 69.5264 8.50064 69.4769 8.46002C69.3953 8.39502 69.3048 8.33815 69.2085 8.29207C69.1473 8.26223 69.0889 8.23519 69.0219 8.21348C68.9841 8.1999 68.9519 8.17553 68.9111 8.1674L35.3705 0.0426549C35.1314 -0.0142183 34.8746 -0.0142183 34.6355 0.0426549L1.09494 8.1674C1.05119 8.18098 1.01906 8.20257 0.98119 8.21615C0.914063 8.23786 0.855823 8.2649 0.794575 8.29473C0.695457 8.34081 0.60796 8.39769 0.526204 8.46269C0.476577 8.50331 0.427086 8.54127 0.383338 8.58456C0.30459 8.6658 0.246213 8.75518 0.190844 8.85267C0.161724 8.90142 0.129596 8.94205 0.106217 8.99346C0.0420983 9.14516 0.0012207 9.30766 0.0012207 9.48094V63.646C0.0012207 64.3934 0.654579 65.0001 1.45955 65.0001H68.5408C69.3458 65.0001 69.9992 64.3934 69.9992 63.646V9.48094C69.9989 9.30753 69.958 9.14504 69.8939 8.99346ZM35 2.75365L57.1777 8.12678H12.8223L35 2.75365ZM17.5005 62.2918H8.75081V54.167H17.5005V62.2918ZM8.75081 51.4587V46.0422H14.584V51.4587H8.75081ZM29.1668 62.2918H20.4171V56.8753H29.1668V62.2918ZM67.0824 62.2918H46.6662V54.167H67.0822L67.0824 62.2918ZM67.0824 51.4587H52.4994V46.0422H67.0824V51.4587ZM67.0824 43.334H51.0411C50.2361 43.334 49.5828 43.9407 49.5828 44.6881V51.4587H45.2079C44.4029 51.4587 43.7496 52.0654 43.7496 52.8129V62.2918H32.0833V55.5212C32.0833 54.7737 31.43 54.167 30.625 54.167H20.4169V52.8129C20.4169 52.0654 19.7636 51.4587 18.9586 51.4587H17.5003V44.6881C17.5003 43.9407 16.8469 43.334 16.0419 43.334H7.2922C6.48723 43.334 5.83387 43.9407 5.83387 44.6881V62.2918H2.91761V35.2092H67.0822L67.0824 43.334ZM67.0824 32.501H2.91761V27.0845H67.0822L67.0824 32.501ZM67.0824 24.3763H2.91761V18.9597H67.0822L67.0824 24.3763ZM67.0824 16.2515H2.91761V10.835H67.0822L67.0824 16.2515Z" fill="black"/>
</g>
<defs>
<clipPath id="clip0_17009_115">
<rect width="70" height="65" fill="white"/>
</clipPath>
</defs>
</svg>
